<?xml version="1.0" encoding="utf-8"?>
<!-- Generator: Adobe Illustrator 21.1.0, SVG Export Plug-In . SVG Version: 6.00 Build 0)  -->
<svg version="1.1" id="Layer_1" xmlns="http://www.w3.org/2000/svg" xmlns:xlink="http://www.w3.org/1999/xlink" x="0px" y="0px"
	 viewBox="0 0 24 24" style="enable-background:new 0 0 24 24;" xml:space="preserve">
<style type="text/css">
	.st0{fill:#FFFFFF;}
</style>
<title  id="simpleicons-vsco-icon">VSCO icon</title>
<path class="st0" d="M12,0C5.4,0,0,5.4,0,12s5.4,12,12,12s12-5.4,12-12S18.6,0,12,0z M23.5,12c0,0.4,0,0.8-0.1,1.2l-2-0.2
	c0-0.3,0-0.6,0-0.9c0-0.3,0-0.6,0-0.9l2-0.2C23.5,11.3,23.5,11.6,23.5,12z M0.5,12c0-0.4,0-0.8,0-1.2l2,0.2c0,0.3,0,0.6,0,0.9
	s0,0.6,0,0.9l-2,0.2C0.5,12.8,0.5,12.4,0.5,12z M21,8.9l1.9-0.7c0.3,0.7,0.4,1.5,0.6,2.2l-2,0.2C21.3,10.1,21.1,9.5,21,8.9z M21,12
	c0,0.6-0.1,1.2-0.2,1.8l-2-0.5c0.1-0.4,0.1-0.8,0.1-1.3s0-0.9-0.1-1.3l2-0.5C21,10.8,21,11.4,21,12z M12,18.5
	c-3.6,0-6.5-2.9-6.5-6.5c0-3.6,2.9-6.5,6.5-6.5c3.6,0,6.5,2.9,6.5,6.5C18.5,15.6,15.6,18.4,12,18.5L12,18.5z M12.2,21v-2.1
	c0.9,0,1.8-0.2,2.6-0.6l0.9,1.9C14.6,20.7,13.4,21,12.2,21z M8.3,20.2l0.9-1.9c0.8,0.4,1.7,0.6,2.6,0.6V21
	C10.6,21,9.4,20.7,8.3,20.2z M3,12c0-0.6,0.1-1.2,0.2-1.8l2,0.5c-0.1,0.4-0.1,0.9-0.1,1.4c0,0.4,0,0.9,0.1,1.3l-2,0.5
	C3.1,13.2,3,12.6,3,12z M11.8,3v2.1c-0.9,0-1.7,0.2-2.5,0.6L8.3,3.8C9.4,3.3,10.6,3,11.8,3z M15.7,3.8l-0.9,1.9
	c-0.8-0.4-1.7-0.6-2.6-0.6V3C13.5,3,14.6,3.3,15.7,3.8z M20.8,8.4c-0.2-0.6-0.5-1.1-0.8-1.6l1.7-1.2c0.4,0.6,0.8,1.3,1.1,2L20.8,8.4
	z M20.7,9.7l-2,0.5c-0.2-0.9-0.6-1.6-1.2-2.4l1.6-1.3C19.9,7.5,20.4,8.6,20.7,9.7z M17.3,7.5c-0.6-0.7-1.3-1.2-2-1.6L16.1,4
	c1.1,0.5,2,1.3,2.8,2.2L17.3,7.5z M16.7,3.7l1-1.8c0.7,0.4,1.3,0.8,1.9,1.3l-1.4,1.6C17.7,4.4,17.2,4,16.7,3.7z M16.2,3.5
	c-0.5-0.3-1.1-0.5-1.7-0.6l0.5-2c0.7,0.2,1.5,0.5,2.2,0.8L16.2,3.5z M14.1,2.8c-0.6-0.1-1.2-0.2-1.8-0.2v-2c0.8,0,1.6,0.1,2.3,0.3
	C14.6,0.8,14.1,2.8,14.1,2.8z M11.8,2.5c-0.6,0-1.2,0.1-1.8,0.2l-0.5-2c0.7-0.2,1.5-0.3,2.3-0.3C11.8,0.5,11.8,2.5,11.8,2.5z
	 M9.5,2.9C8.9,3,8.4,3.2,7.8,3.5l-1-1.8C7.6,1.3,8.3,1.1,9,0.9L9.5,2.9z M7.4,3.7c-0.5,0.3-1,0.6-1.5,1L4.6,3.2
	c0.6-0.5,1.2-0.9,1.9-1.3C6.5,1.9,7.4,3.7,7.4,3.7z M7.9,4l0.9,1.9c-0.8,0.4-1.5,1-2,1.6L5.1,6.2C5.9,5.3,6.8,4.5,7.9,4z M4.8,6.6
	l1.6,1.3c-0.5,0.7-0.9,1.5-1.2,2.4l-2-0.5C3.6,8.5,4.1,7.5,4.8,6.6z M3.2,8.4L1.3,7.7C1.6,7,2,6.3,2.4,5.6l1.7,1.2
	C3.7,7.3,3.5,7.8,3.2,8.4z M3.1,8.9C2.9,9.4,2.7,10,2.6,10.6l-2-0.2c0.1-0.8,0.3-1.5,0.6-2.3L3.1,8.9z M2.6,13.4
	C2.7,14,2.9,14.6,3,15.1l-1.9,0.7c-0.3-0.7-0.5-1.5-0.6-2.3L2.6,13.4z M3.2,15.6c0.2,0.6,0.5,1.1,0.8,1.6l-1.7,1.2
	c-0.4-0.6-0.8-1.3-1.1-2C1.3,16.3,3.2,15.6,3.2,15.6z M3.3,14.2l2-0.5c0.2,0.9,0.6,1.7,1.1,2.4l-1.6,1.3C4.1,16.4,3.6,15.3,3.3,14.2
	z M6.7,16.5c0.6,0.7,1.3,1.2,2.1,1.7L7.8,20c-1.1-0.6-2-1.3-2.8-2.2L6.7,16.5z M7.4,20.3l-1,1.8c-0.7-0.4-1.3-0.8-1.9-1.3l1.4-1.5
	C6.4,19.7,6.9,20,7.4,20.3z M7.8,20.5c0.5,0.3,1.1,0.5,1.7,0.6l-0.5,2c-0.7-0.2-1.5-0.5-2.2-0.8C6.9,22.3,7.8,20.5,7.8,20.5z
	 M10,21.3c0.6,0.1,1.2,0.2,1.8,0.2v2c-0.8,0-1.5-0.1-2.3-0.3C9.5,23.3,10,21.3,10,21.3z M12.3,21.5c0.6,0,1.2-0.1,1.8-0.2l0.5,2
	c-0.7,0.2-1.5,0.3-2.3,0.3V21.5z M14.5,21.1c0.6-0.2,1.2-0.4,1.7-0.6l1,1.8c-0.7,0.4-1.4,0.6-2.2,0.8C15,23.1,14.5,21.1,14.5,21.1z
	 M16.6,20.3c0.5-0.3,1-0.6,1.5-1l1.4,1.5c-0.6,0.5-1.2,0.9-1.9,1.3C17.6,22.1,16.6,20.3,16.6,20.3z M16.1,20l-0.9-1.9
	c0.8-0.4,1.5-1,2.1-1.7l1.6,1.3C18.1,18.7,17.2,19.5,16.1,20z M19.2,17.4l-1.6-1.3c0.5-0.7,0.9-1.5,1.1-2.4l2,0.5
	C20.4,15.4,19.9,16.5,19.2,17.4z M20.8,15.6l1.9,0.7c-0.3,0.7-0.6,1.4-1.1,2l-1.7-1.2C20.3,16.7,20.5,16.2,20.8,15.6z M20.9,15.1
	c0.2-0.6,0.3-1.2,0.4-1.8l2,0.2c-0.1,0.8-0.3,1.5-0.6,2.2C22.8,15.9,20.9,15.1,20.9,15.1z M21.4,5.3l-1.7,1.2
	c-0.4-0.5-0.8-0.9-1.2-1.4l1.4-1.5C20.4,4.1,20.9,4.7,21.4,5.3z M4.2,3.5l1.4,1.5C5.1,5.5,4.7,5.9,4.4,6.4L2.7,5.3
	C3.1,4.6,3.6,4,4.2,3.5z M2.7,18.7l1.7-1.2c0.4,0.5,0.8,0.9,1.2,1.4l-1.4,1.5C3.6,20,3.1,19.4,2.7,18.7z M19.8,20.5l-1.4-1.5
	c0.4-0.4,0.8-0.9,1.2-1.3l1.7,1.2C20.9,19.4,20.4,19.9,19.8,20.5z"/>
</svg>
